<svg width="360" height="96" viewBox="0 0 360 96" fill="none" xmlns="http://www.w3.org/2000/svg">
<g clip-path="url(#clip0_18412_13165)">
<rect width="360" height="96" fill="#F7F7F7"/>
<g opacity="0.7">
<path d="M351.935 24.3756C348.576 25.62 345.455 32.9721 348.576 36.3171C351.228 39.1598 356.589 38.5205 355.698 33.0977C355.69 33.0359 355.669 32.978 355.636 32.9298C355.604 32.8817 355.562 32.8451 355.515 32.8237C351.99 31.7734 350.825 36.8879 351.568 40.2672C352.715 45.5187 356.974 45.4502 360.049 42.7102C360.15 42.6189 360.104 42.2536 359.957 42.3449C357.442 43.909 353.918 45.3018 352.385 41.306C351.568 39.1712 351.54 35.5979 353.119 33.9882C353.53 33.5115 354.072 33.2499 354.634 33.2575C355.809 33.4288 355.607 35.0042 354.946 36.0089C353.89 37.6071 351.77 37.4359 350.356 36.8194C345.519 34.6846 348.842 26.8872 351.999 24.6953C352.091 24.6268 352.073 24.3299 351.935 24.3756Z" fill="#BA68C8"/>
<path d="M262.316 19.0625C265.476 20.2427 272.786 18.3113 271.613 12.4586C270.988 9.33906 266.911 6.57298 265.118 9.62521C265.078 9.71003 265.065 9.81209 265.084 9.90982C265.103 10.0076 265.151 10.0933 265.218 10.149C271.38 16.2723 280.014 4.09269 273.471 -2.36626C273.266 -2.57038 273.219 -2.09618 273.332 -1.94931C273.886 -1.29861 274.332 -0.519588 274.646 0.342146C274.96 1.20388 275.135 2.13103 275.16 3.06934C275.184 4.00766 275.059 4.93829 274.791 5.8068C274.523 6.67531 274.118 7.46425 273.599 8.12746C272.709 9.41603 271.543 10.3624 270.233 10.8614C269.255 11.2081 266.865 11.4884 266.136 10.1978C265.808 9.59809 265.741 10.2484 266.011 9.68789C266.244 9.36992 266.566 9.17604 266.913 9.14502C267.678 9.00844 268.463 9.20557 269.138 9.70334C270.553 10.6625 271.527 12.6114 270.867 14.5711C269.612 18.5136 265.242 19.0932 262.292 18.545C262.09 18.5031 262.163 19.0021 262.316 19.0625Z" fill="#BA68C8"/>
<path d="M293.366 60.9325C293.366 60.9325 291.356 65.8644 287.262 66.458L284.793 63.1815C284.793 63.1815 287.354 63.4213 290.722 59.026L293.366 60.9325Z" fill="#BA68C8"/>
<path d="M332.905 7.49299C332.905 7.49299 328.49 8.17798 325.801 4.285L326.618 -0.0874634C326.618 -0.0874634 327.875 2.68671 332.694 3.70276L332.905 7.49299Z" fill="#FF9F1C" fill-opacity="0.6"/>
<path d="M247.482 42.209C247.482 42.209 243.076 42.8826 240.387 39.001L241.194 34.6286C241.194 34.6286 242.461 37.4027 247.28 38.4188L247.482 42.209Z" fill="#FF9F1C" fill-opacity="0.6"/>
<path d="M302.682 27.7551C302.682 27.7551 300.672 32.687 296.578 33.292L294.109 30.0041C294.109 30.0041 297.129 30.5864 300.534 26.1911L302.682 27.7551Z" fill="#E68600"/>
<path d="M307.124 35.0384C307.124 35.0384 306.335 40.484 302.535 42.5162L299.414 40.2329C301.622 38.9937 303.457 36.9152 304.655 34.2964L307.124 35.0384Z" fill="#37474F"/>
<path d="M100.069 -2.37225C102.047 0.969841 103.537 10.4664 99.2172 11.2767C96.9147 11.7086 93.5391 7.86858 94.8809 4.56246C94.9217 4.4815 94.9846 4.42806 95.0564 4.4134C95.1281 4.39875 95.2032 4.42404 95.2656 4.48394C101.654 9.5531 96.8599 24.5189 90.1045 19.12C89.8916 18.951 90.1878 18.7151 90.3278 18.7947C90.969 19.2135 91.6549 19.455 92.3452 19.5053C93.0355 19.5555 93.7164 19.4135 94.3478 19.0874C94.9793 18.7613 95.5486 18.2578 96.0225 17.6063C96.4963 16.9549 96.8652 16.1687 97.1073 15.2938C97.6233 13.7379 97.8085 11.9822 97.6426 10.2219C97.5015 8.91757 96.7819 5.94598 95.6512 5.56084C95.13 5.39501 95.5351 5.06815 95.2665 5.60476C95.1439 6.00378 95.1375 6.46333 95.2485 6.89154C95.4478 7.86032 95.8759 8.72744 96.4609 9.34746C97.6322 10.6814 99.2915 11.1107 100.339 9.57663C102.474 6.5789 101.203 1.11994 99.7223 -2.21025C99.6184 -2.4356 99.9762 -2.53794 100.074 -2.37704L100.069 -2.37225Z" fill="#BA68C8"/>
<path d="M232.281 14.2339C232.281 14.2339 232.529 19.7594 229.225 22.8304L225.773 21.5289C225.773 21.5289 228.077 20.1476 229.225 14.2339H232.281Z" fill="#FF9F1C"/>
<path d="M163.617 0.863885C163.617 0.863885 165.627 5.79574 169.721 6.40081L172.181 3.11291C172.181 3.11291 169.629 3.36406 166.261 -1.03123L163.617 0.863885Z" fill="#FF9F1C" fill-opacity="0.6"/>
</g>
<path d="M19.262 29.61H23.966V31.43H19.262V29.61ZM19.43 35H17.162V25.2H24.568V27.02H19.43V35ZM26.1034 35V25.2H28.3714V33.152H33.2854V35H26.1034ZM33.3193 35L37.6873 25.2H39.9273L44.3093 35H41.9293L38.3453 26.348H39.2413L35.6433 35H33.3193ZM35.5033 32.9L36.1053 31.178H41.1453L41.7613 32.9H35.5033ZM46.8639 35V27.048H43.7279V25.2H52.2679V27.048H49.1319V35H46.8639ZM57.453 31.794V29.974H60.057C60.8503 29.974 61.415 29.8107 61.751 29.484C62.087 29.148 62.255 28.742 62.255 28.266C62.255 27.6967 62.073 27.2347 61.709 26.88C61.345 26.5253 60.7663 26.3527 59.973 26.362H56.879V25.2H65.727V26.362H62.353L62.829 25.732C63.4263 26.0027 63.8603 26.3853 64.131 26.88C64.4017 27.3747 64.537 27.9067 64.537 28.476C64.537 29.176 64.3643 29.7733 64.019 30.268C63.683 30.7627 63.1977 31.1407 62.563 31.402C61.9283 31.6633 61.1723 31.794 60.295 31.794H57.453ZM62.283 35L59.735 31.066H62.157L64.733 35H62.283ZM56.879 28.294V27.132H65.727V28.294H56.879ZM71.0764 35.168C70.1804 35.168 69.4011 34.9813 68.7384 34.608C68.0851 34.2347 67.5811 33.6887 67.2264 32.97C66.8718 32.2513 66.6944 31.3647 66.6944 30.31C66.6944 29.1807 66.9044 28.224 67.3244 27.44C67.7538 26.656 68.3418 26.0587 69.0884 25.648C69.8444 25.2373 70.7124 25.032 71.6924 25.032C72.2151 25.032 72.7144 25.088 73.1904 25.2C73.6664 25.312 74.0771 25.48 74.4224 25.704L73.5824 27.37C73.3118 27.1833 73.0224 27.0573 72.7144 26.992C72.4064 26.9173 72.0844 26.88 71.7484 26.88C70.8991 26.88 70.2271 27.1367 69.7324 27.65C69.2378 28.1633 68.9904 28.924 68.9904 29.932C68.9904 30.1 68.9904 30.2867 68.9904 30.492C68.9998 30.6973 69.0278 30.9027 69.0744 31.108L68.4444 30.52C68.6218 30.156 68.8504 29.8527 69.1304 29.61C69.4104 29.358 69.7418 29.1713 70.1244 29.05C70.5164 28.9193 70.9458 28.854 71.4124 28.854C72.0471 28.854 72.6164 28.98 73.1204 29.232C73.6244 29.484 74.0258 29.8387 74.3244 30.296C74.6324 30.7533 74.7864 31.29 74.7864 31.906C74.7864 32.5687 74.6184 33.1473 74.2824 33.642C73.9558 34.1273 73.5124 34.5053 72.9524 34.776C72.4018 35.0373 71.7764 35.168 71.0764 35.168ZM70.9504 33.474C71.2678 33.474 71.5478 33.418 71.7904 33.306C72.0424 33.1847 72.2384 33.012 72.3784 32.788C72.5184 32.564 72.5884 32.3073 72.5884 32.018C72.5884 31.57 72.4344 31.2153 72.1264 30.954C71.8278 30.6833 71.4264 30.548 70.9224 30.548C70.5864 30.548 70.2924 30.6133 70.0404 30.744C69.7884 30.8653 69.5878 31.038 69.4384 31.262C69.2984 31.4767 69.2284 31.7287 69.2284 32.018C69.2284 32.298 69.2984 32.55 69.4384 32.774C69.5784 32.9887 69.7744 33.1613 70.0264 33.292C70.2784 33.4133 70.5864 33.474 70.9504 33.474ZM79.8085 35.168C79.0058 35.168 78.2872 34.972 77.6525 34.58C77.0178 34.1787 76.5185 33.6 76.1545 32.844C75.7905 32.088 75.6085 31.1733 75.6085 30.1C75.6085 29.0267 75.7905 28.112 76.1545 27.356C76.5185 26.6 77.0178 26.026 77.6525 25.634C78.2872 25.2327 79.0058 25.032 79.8085 25.032C80.6205 25.032 81.3392 25.2327 81.9645 25.634C82.5992 26.026 83.0985 26.6 83.4625 27.356C83.8265 28.112 84.0085 29.0267 84.0085 30.1C84.0085 31.1733 83.8265 32.088 83.4625 32.844C83.0985 33.6 82.5992 34.1787 81.9645 34.58C81.3392 34.972 80.6205 35.168 79.8085 35.168ZM79.8085 33.25C80.1912 33.25 80.5225 33.1427 80.8025 32.928C81.0918 32.7133 81.3158 32.3727 81.4745 31.906C81.6425 31.4393 81.7265 30.8373 81.7265 30.1C81.7265 29.3627 81.6425 28.7607 81.4745 28.294C81.3158 27.8273 81.0918 27.4867 80.8025 27.272C80.5225 27.0573 80.1912 26.95 79.8085 26.95C79.4352 26.95 79.1038 27.0573 78.8145 27.272C78.5345 27.4867 78.3105 27.8273 78.1425 28.294C77.9838 28.7607 77.9045 29.3627 77.9045 30.1C77.9045 30.8373 77.9838 31.4393 78.1425 31.906C78.3105 32.3727 78.5345 32.7133 78.8145 32.928C79.1038 33.1427 79.4352 33.25 79.8085 33.25ZM94.4513 35.168C93.6766 35.168 92.958 35.042 92.2953 34.79C91.642 34.538 91.0726 34.1833 90.5873 33.726C90.1113 33.2687 89.738 32.732 89.4673 32.116C89.206 31.5 89.0753 30.828 89.0753 30.1C89.0753 29.372 89.206 28.7 89.4673 28.084C89.738 27.468 90.116 26.9313 90.6013 26.474C91.0866 26.0167 91.656 25.662 92.3093 25.41C92.9626 25.158 93.672 25.032 94.4373 25.032C95.212 25.032 95.9213 25.158 96.5653 25.41C97.2186 25.662 97.7833 26.0167 98.2593 26.474C98.7446 26.9313 99.1226 27.468 99.3933 28.084C99.664 28.6907 99.7993 29.3627 99.7993 30.1C99.7993 30.828 99.664 31.5047 99.3933 32.13C99.1226 32.746 98.7446 33.2827 98.2593 33.74C97.7833 34.188 97.2186 34.538 96.5653 34.79C95.9213 35.042 95.2166 35.168 94.4513 35.168ZM94.4373 33.236C94.876 33.236 95.2773 33.1613 95.6413 33.012C96.0146 32.8627 96.3413 32.648 96.6213 32.368C96.9013 32.088 97.116 31.7567 97.2653 31.374C97.424 30.9913 97.5033 30.5667 97.5033 30.1C97.5033 29.6333 97.424 29.2087 97.2653 28.826C97.116 28.4433 96.9013 28.112 96.6213 27.832C96.3506 27.552 96.0286 27.3373 95.6553 27.188C95.282 27.0387 94.876 26.964 94.4373 26.964C93.9986 26.964 93.5926 27.0387 93.2193 27.188C92.8553 27.3373 92.5333 27.552 92.2533 27.832C91.9733 28.112 91.754 28.4433 91.5953 28.826C91.446 29.2087 91.3713 29.6333 91.3713 30.1C91.3713 30.5573 91.446 30.982 91.5953 31.374C91.754 31.7567 91.9686 32.088 92.2393 32.368C92.5193 32.648 92.846 32.8627 93.2193 33.012C93.5926 33.1613 93.9986 33.236 94.4373 33.236ZM103.604 29.61H108.308V31.43H103.604V29.61ZM103.772 35H101.504V25.2H108.91V27.02H103.772V35ZM112.545 29.61H117.249V31.43H112.545V29.61ZM112.713 35H110.445V25.2H117.851V27.02H112.713V35Z" fill="#198854"/>
<path d="M126.436 35.084C125.69 35.084 125.027 34.9207 124.448 34.594C123.87 34.2673 123.412 33.8193 123.076 33.25C122.74 32.6713 122.572 32.018 122.572 31.29C122.572 30.5527 122.74 29.8993 123.076 29.33C123.412 28.7607 123.87 28.3173 124.448 28C125.027 27.6733 125.69 27.51 126.436 27.51C127.174 27.51 127.832 27.6733 128.41 28C128.998 28.3173 129.456 28.7607 129.782 29.33C130.118 29.89 130.286 30.5433 130.286 31.29C130.286 32.0273 130.118 32.6807 129.782 33.25C129.456 33.8193 128.998 34.2673 128.41 34.594C127.832 34.9207 127.174 35.084 126.436 35.084ZM126.436 33.908C126.912 33.908 127.337 33.8007 127.71 33.586C128.093 33.3713 128.392 33.068 128.606 32.676C128.821 32.2747 128.928 31.8127 128.928 31.29C128.928 30.758 128.821 30.3007 128.606 29.918C128.392 29.526 128.093 29.2227 127.71 29.008C127.337 28.7933 126.912 28.686 126.436 28.686C125.96 28.686 125.536 28.7933 125.162 29.008C124.789 29.2227 124.49 29.526 124.266 29.918C124.042 30.3007 123.93 30.758 123.93 31.29C123.93 31.8127 124.042 32.2747 124.266 32.676C124.49 33.068 124.789 33.3713 125.162 33.586C125.536 33.8007 125.96 33.908 126.436 33.908ZM136.107 27.51C136.714 27.51 137.246 27.6267 137.703 27.86C138.17 28.0933 138.534 28.448 138.795 28.924C139.056 29.4 139.187 30.002 139.187 30.73V35H137.843V30.884C137.843 30.1653 137.666 29.624 137.311 29.26C136.966 28.896 136.476 28.714 135.841 28.714C135.365 28.714 134.95 28.8073 134.595 28.994C134.24 29.1807 133.965 29.456 133.769 29.82C133.582 30.184 133.489 30.6367 133.489 31.178V35H132.145V27.58H133.433V29.582L133.223 29.05C133.466 28.5647 133.839 28.1867 134.343 27.916C134.847 27.6453 135.435 27.51 136.107 27.51ZM145.63 35V26.922C145.63 26.194 145.84 25.6153 146.26 25.186C146.689 24.7473 147.296 24.528 148.08 24.528C148.369 24.528 148.645 24.5653 148.906 24.64C149.177 24.7053 149.405 24.8127 149.592 24.962L149.186 25.984C149.046 25.872 148.887 25.788 148.71 25.732C148.533 25.6667 148.346 25.634 148.15 25.634C147.758 25.634 147.459 25.746 147.254 25.97C147.049 26.1847 146.946 26.5067 146.946 26.936V27.93L146.974 28.546V35H145.63ZM144.37 28.686V27.58H149.102V28.686H144.37ZM150.376 35V27.58H151.72V35H150.376ZM151.048 26.152C150.787 26.152 150.567 26.068 150.39 25.9C150.222 25.732 150.138 25.5267 150.138 25.284C150.138 25.032 150.222 24.822 150.39 24.654C150.567 24.486 150.787 24.402 151.048 24.402C151.309 24.402 151.524 24.486 151.692 24.654C151.869 24.8127 151.958 25.0133 151.958 25.256C151.958 25.508 151.874 25.7227 151.706 25.9C151.538 26.068 151.319 26.152 151.048 26.152ZM154.28 35V27.58H155.568V29.596L155.442 29.092C155.647 28.5787 155.993 28.1867 156.478 27.916C156.963 27.6453 157.561 27.51 158.27 27.51V28.812C158.214 28.8027 158.158 28.798 158.102 28.798C158.055 28.798 158.009 28.798 157.962 28.798C157.243 28.798 156.674 29.0127 156.254 29.442C155.834 29.8713 155.624 30.492 155.624 31.304V35H154.28ZM162.136 35.084C161.52 35.084 160.932 35 160.372 34.832C159.822 34.664 159.388 34.4587 159.07 34.216L159.63 33.152C159.948 33.3667 160.34 33.5487 160.806 33.698C161.273 33.8473 161.749 33.922 162.234 33.922C162.86 33.922 163.308 33.8333 163.578 33.656C163.858 33.4787 163.998 33.2313 163.998 32.914C163.998 32.6807 163.914 32.4987 163.746 32.368C163.578 32.2373 163.354 32.1393 163.074 32.074C162.804 32.0087 162.5 31.9527 162.164 31.906C161.828 31.85 161.492 31.7847 161.156 31.71C160.82 31.626 160.512 31.514 160.232 31.374C159.952 31.2247 159.728 31.024 159.56 30.772C159.392 30.5107 159.308 30.1653 159.308 29.736C159.308 29.288 159.434 28.896 159.686 28.56C159.938 28.224 160.293 27.9673 160.75 27.79C161.217 27.6033 161.768 27.51 162.402 27.51C162.888 27.51 163.378 27.5707 163.872 27.692C164.376 27.804 164.787 27.9673 165.104 28.182L164.53 29.246C164.194 29.022 163.844 28.868 163.48 28.784C163.116 28.7 162.752 28.658 162.388 28.658C161.8 28.658 161.362 28.756 161.072 28.952C160.783 29.1387 160.638 29.3813 160.638 29.68C160.638 29.932 160.722 30.128 160.89 30.268C161.068 30.3987 161.292 30.5013 161.562 30.576C161.842 30.6507 162.15 30.716 162.486 30.772C162.822 30.8187 163.158 30.884 163.494 30.968C163.83 31.0427 164.134 31.15 164.404 31.29C164.684 31.43 164.908 31.626 165.076 31.878C165.254 32.13 165.342 32.466 165.342 32.886C165.342 33.334 165.212 33.7213 164.95 34.048C164.689 34.3747 164.32 34.6313 163.844 34.818C163.368 34.9953 162.799 35.084 162.136 35.084ZM169.57 35.084C168.823 35.084 168.245 34.8833 167.834 34.482C167.423 34.0807 167.218 33.5067 167.218 32.76V25.956H168.562V32.704C168.562 33.1053 168.66 33.4133 168.856 33.628C169.061 33.8427 169.351 33.95 169.724 33.95C170.144 33.95 170.494 33.8333 170.774 33.6L171.194 34.566C170.989 34.7433 170.741 34.874 170.452 34.958C170.172 35.042 169.878 35.084 169.57 35.084ZM165.958 28.686V27.58H170.69V28.686H165.958ZM180.513 35.084C179.878 35.084 179.304 34.944 178.791 34.664C178.287 34.3747 177.885 33.95 177.587 33.39C177.297 32.83 177.153 32.13 177.153 31.29C177.153 30.45 177.302 29.75 177.601 29.19C177.909 28.63 178.315 28.21 178.819 27.93C179.332 27.65 179.897 27.51 180.513 27.51C181.241 27.51 181.885 27.6687 182.445 27.986C183.005 28.3033 183.448 28.7467 183.775 29.316C184.101 29.876 184.265 30.534 184.265 31.29C184.265 32.046 184.101 32.7087 183.775 33.278C183.448 33.8473 183.005 34.2907 182.445 34.608C181.885 34.9253 181.241 35.084 180.513 35.084ZM176.579 35V24.612H177.923V29.554L177.783 31.276L177.867 32.998V35H176.579ZM180.401 33.908C180.877 33.908 181.301 33.8007 181.675 33.586C182.057 33.3713 182.356 33.068 182.571 32.676C182.795 32.2747 182.907 31.8127 182.907 31.29C182.907 30.758 182.795 30.3007 182.571 29.918C182.356 29.526 182.057 29.2227 181.675 29.008C181.301 28.7933 180.877 28.686 180.401 28.686C179.934 28.686 179.509 28.7933 179.127 29.008C178.753 29.2227 178.455 29.526 178.231 29.918C178.016 30.3007 177.909 30.758 177.909 31.29C177.909 31.8127 178.016 32.2747 178.231 32.676C178.455 33.068 178.753 33.3713 179.127 33.586C179.509 33.8007 179.934 33.908 180.401 33.908ZM189.3 35.084C188.553 35.084 187.89 34.9207 187.312 34.594C186.733 34.2673 186.276 33.8193 185.94 33.25C185.604 32.6713 185.436 32.018 185.436 31.29C185.436 30.5527 185.604 29.8993 185.94 29.33C186.276 28.7607 186.733 28.3173 187.312 28C187.89 27.6733 188.553 27.51 189.3 27.51C190.037 27.51 190.695 27.6733 191.274 28C191.862 28.3173 192.319 28.7607 192.646 29.33C192.982 29.89 193.15 30.5433 193.15 31.29C193.15 32.0273 192.982 32.6807 192.646 33.25C192.319 33.8193 191.862 34.2673 191.274 34.594C190.695 34.9207 190.037 35.084 189.3 35.084ZM189.3 33.908C189.776 33.908 190.2 33.8007 190.574 33.586C190.956 33.3713 191.255 33.068 191.47 32.676C191.684 32.2747 191.792 31.8127 191.792 31.29C191.792 30.758 191.684 30.3007 191.47 29.918C191.255 29.526 190.956 29.2227 190.574 29.008C190.2 28.7933 189.776 28.686 189.3 28.686C188.824 28.686 188.399 28.7933 188.026 29.008C187.652 29.2227 187.354 29.526 187.13 29.918C186.906 30.3007 186.794 30.758 186.794 31.29C186.794 31.8127 186.906 32.2747 187.13 32.676C187.354 33.068 187.652 33.3713 188.026 33.586C188.399 33.8007 188.824 33.908 189.3 33.908ZM198.186 35.084C197.44 35.084 196.777 34.9207 196.198 34.594C195.62 34.2673 195.162 33.8193 194.826 33.25C194.49 32.6713 194.322 32.018 194.322 31.29C194.322 30.5527 194.49 29.8993 194.826 29.33C195.162 28.7607 195.62 28.3173 196.198 28C196.777 27.6733 197.44 27.51 198.186 27.51C198.924 27.51 199.582 27.6733 200.16 28C200.748 28.3173 201.206 28.7607 201.532 29.33C201.868 29.89 202.036 30.5433 202.036 31.29C202.036 32.0273 201.868 32.6807 201.532 33.25C201.206 33.8193 200.748 34.2673 200.16 34.594C199.582 34.9207 198.924 35.084 198.186 35.084ZM198.186 33.908C198.662 33.908 199.087 33.8007 199.46 33.586C199.843 33.3713 200.142 33.068 200.356 32.676C200.571 32.2747 200.678 31.8127 200.678 31.29C200.678 30.758 200.571 30.3007 200.356 29.918C200.142 29.526 199.843 29.2227 199.46 29.008C199.087 28.7933 198.662 28.686 198.186 28.686C197.71 28.686 197.286 28.7933 196.912 29.008C196.539 29.2227 196.24 29.526 196.016 29.918C195.792 30.3007 195.68 30.758 195.68 31.29C195.68 31.8127 195.792 32.2747 196.016 32.676C196.24 33.068 196.539 33.3713 196.912 33.586C197.286 33.8007 197.71 33.908 198.186 33.908ZM204.987 33.208L205.015 31.486L209.285 27.58H210.909L207.633 30.8L206.905 31.416L204.987 33.208ZM203.895 35V24.612H205.239V35H203.895ZM209.565 35L206.653 31.388L207.521 30.31L211.217 35H209.565ZM212.522 35V27.58H213.866V35H212.522ZM213.194 26.152C212.933 26.152 212.713 26.068 212.536 25.9C212.368 25.732 212.284 25.5267 212.284 25.284C212.284 25.032 212.368 24.822 212.536 24.654C212.713 24.486 212.933 24.402 213.194 24.402C213.455 24.402 213.67 24.486 213.838 24.654C214.015 24.8127 214.104 25.0133 214.104 25.256C214.104 25.508 214.02 25.7227 213.852 25.9C213.684 26.068 213.465 26.152 213.194 26.152ZM220.394 27.51C221.001 27.51 221.533 27.6267 221.99 27.86C222.457 28.0933 222.821 28.448 223.082 28.924C223.344 29.4 223.474 30.002 223.474 30.73V35H222.13V30.884C222.13 30.1653 221.953 29.624 221.598 29.26C221.253 28.896 220.763 28.714 220.128 28.714C219.652 28.714 219.237 28.8073 218.882 28.994C218.528 29.1807 218.252 29.456 218.056 29.82C217.87 30.184 217.776 30.6367 217.776 31.178V35H216.432V27.58H217.72V29.582L217.51 29.05C217.753 28.5647 218.126 28.1867 218.63 27.916C219.134 27.6453 219.722 27.51 220.394 27.51ZM229.21 37.8C228.528 37.8 227.866 37.702 227.222 37.506C226.587 37.3193 226.069 37.0487 225.668 36.694L226.312 35.658C226.657 35.9567 227.082 36.19 227.586 36.358C228.09 36.5353 228.617 36.624 229.168 36.624C230.045 36.624 230.689 36.4187 231.1 36.008C231.51 35.5973 231.716 34.972 231.716 34.132V32.564L231.856 31.094L231.786 29.61V27.58H233.06V33.992C233.06 35.2987 232.733 36.26 232.079 36.876C231.426 37.492 230.47 37.8 229.21 37.8ZM229.042 34.692C228.323 34.692 227.679 34.5427 227.11 34.244C226.55 33.936 226.102 33.5113 225.766 32.97C225.439 32.4287 225.276 31.8033 225.276 31.094C225.276 30.3753 225.439 29.75 225.766 29.218C226.102 28.6767 226.55 28.2567 227.11 27.958C227.679 27.6593 228.323 27.51 229.042 27.51C229.676 27.51 230.255 27.6407 230.778 27.902C231.3 28.154 231.716 28.546 232.024 29.078C232.341 29.61 232.5 30.282 232.5 31.094C232.5 31.8967 232.341 32.564 232.024 33.096C231.716 33.628 231.3 34.0293 230.778 34.3C230.255 34.5613 229.676 34.692 229.042 34.692ZM229.196 33.516C229.69 33.516 230.129 33.4133 230.512 33.208C230.894 33.0027 231.193 32.718 231.408 32.354C231.632 31.99 231.744 31.57 231.744 31.094C231.744 30.618 231.632 30.198 231.408 29.834C231.193 29.47 230.894 29.19 230.512 28.994C230.129 28.7887 229.69 28.686 229.196 28.686C228.701 28.686 228.258 28.7887 227.866 28.994C227.483 29.19 227.18 29.47 226.956 29.834C226.741 30.198 226.634 30.618 226.634 31.094C226.634 31.57 226.741 31.99 226.956 32.354C227.18 32.718 227.483 33.0027 227.866 33.208C228.258 33.4133 228.701 33.516 229.196 33.516Z" fill="#1D1D1D"/>
<rect x="41" y="44" width="169" height="36" rx="8" fill="white"/>
<rect x="41" y="44" width="169" height="36" rx="8" stroke="#27A56A" stroke-linecap="round" stroke-dasharray="3 3"/>
<path d="M52.768 66.072C52.224 66.072 51.744 65.972 51.328 65.772C50.92 65.572 50.6 65.268 50.368 64.86C50.144 64.444 50.032 63.924 50.032 63.3V59.64H51.184V63.168C51.184 63.792 51.332 64.26 51.628 64.572C51.932 64.884 52.356 65.04 52.9 65.04C53.3 65.04 53.648 64.96 53.944 64.8C54.24 64.632 54.468 64.392 54.628 64.08C54.788 63.76 54.868 63.376 54.868 62.928V59.64H56.02V66H54.928V64.284L55.108 64.74C54.9 65.164 54.588 65.492 54.172 65.724C53.756 65.956 53.288 66.072 52.768 66.072ZM60.0371 66.072C59.5091 66.072 59.0051 66 58.5251 65.856C58.0531 65.712 57.6811 65.536 57.4091 65.328L57.8891 64.416C58.1611 64.6 58.4971 64.756 58.8971 64.884C59.2971 65.012 59.7051 65.076 60.1211 65.076C60.6571 65.076 61.0411 65 61.2731 64.848C61.5131 64.696 61.6331 64.484 61.6331 64.212C61.6331 64.012 61.5611 63.856 61.4171 63.744C61.2731 63.632 61.0811 63.548 60.8411 63.492C60.6091 63.436 60.3491 63.388 60.0611 63.348C59.7731 63.3 59.4851 63.244 59.1971 63.18C58.9091 63.108 58.6451 63.012 58.4051 62.892C58.1651 62.764 57.9731 62.592 57.8291 62.376C57.6851 62.152 57.6131 61.856 57.6131 61.488C57.6131 61.104 57.7211 60.768 57.9371 60.48C58.1531 60.192 58.4571 59.972 58.8491 59.82C59.2491 59.66 59.7211 59.58 60.2651 59.58C60.6811 59.58 61.1011 59.632 61.5251 59.736C61.9571 59.832 62.3091 59.972 62.5811 60.156L62.0891 61.068C61.8011 60.876 61.5011 60.744 61.1891 60.672C60.8771 60.6 60.5651 60.564 60.2531 60.564C59.7491 60.564 59.3731 60.648 59.1251 60.816C58.8771 60.976 58.7531 61.184 58.7531 61.44C58.7531 61.656 58.8251 61.824 58.9691 61.944C59.1211 62.056 59.3131 62.144 59.5451 62.208C59.7851 62.272 60.0491 62.328 60.3371 62.376C60.6251 62.416 60.9131 62.472 61.2011 62.544C61.4891 62.608 61.7491 62.7 61.9811 62.82C62.2211 62.94 62.4131 63.108 62.5571 63.324C62.7091 63.54 62.7851 63.828 62.7851 64.188C62.7851 64.572 62.6731 64.904 62.4491 65.184C62.2251 65.464 61.9091 65.684 61.5011 65.844C61.0931 65.996 60.6051 66.072 60.0371 66.072ZM67.0568 66.072C66.3768 66.072 65.7768 65.932 65.2568 65.652C64.7448 65.372 64.3448 64.988 64.0568 64.5C63.7768 64.012 63.6368 63.452 63.6368 62.82C63.6368 62.188 63.7728 61.628 64.0448 61.14C64.3248 60.652 64.7048 60.272 65.1848 60C65.6728 59.72 66.2208 59.58 66.8288 59.58C67.4448 59.58 67.9888 59.716 68.4608 59.988C68.9328 60.26 69.3008 60.644 69.5648 61.14C69.8368 61.628 69.9728 62.2 69.9728 62.856C69.9728 62.904 69.9688 62.96 69.9608 63.024C69.9608 63.088 69.9568 63.148 69.9488 63.204H64.5368V62.376H69.3488L68.8808 62.664C68.8888 62.256 68.8048 61.892 68.6288 61.572C68.4528 61.252 68.2088 61.004 67.8968 60.828C67.5928 60.644 67.2368 60.552 66.8288 60.552C66.4288 60.552 66.0728 60.644 65.7608 60.828C65.4488 61.004 65.2048 61.256 65.0288 61.584C64.8528 61.904 64.7648 62.272 64.7648 62.688V62.88C64.7648 63.304 64.8608 63.684 65.0528 64.02C65.2528 64.348 65.5288 64.604 65.8808 64.788C66.2328 64.972 66.6368 65.064 67.0928 65.064C67.4688 65.064 67.8088 65 68.1128 64.872C68.4248 64.744 68.6968 64.552 68.9288 64.296L69.5648 65.04C69.2768 65.376 68.9168 65.632 68.4848 65.808C68.0608 65.984 67.5848 66.072 67.0568 66.072ZM77.5671 66.072C76.9191 66.072 76.3391 65.932 75.8271 65.652C75.3231 65.372 74.9271 64.988 74.6391 64.5C74.3511 64.012 74.2071 63.452 74.2071 62.82C74.2071 62.188 74.3511 61.628 74.6391 61.14C74.9271 60.652 75.3231 60.272 75.8271 60C76.3391 59.72 76.9191 59.58 77.5671 59.58C78.1431 59.58 78.6551 59.696 79.1031 59.928C79.5591 60.152 79.9111 60.488 80.1591 60.936L79.2831 61.5C79.0751 61.188 78.8191 60.96 78.5151 60.816C78.2191 60.664 77.8991 60.588 77.5551 60.588C77.1391 60.588 76.7671 60.68 76.4391 60.864C76.1111 61.048 75.8511 61.308 75.6591 61.644C75.4671 61.972 75.3711 62.364 75.3711 62.82C75.3711 63.276 75.4671 63.672 75.6591 64.008C75.8511 64.344 76.1111 64.604 76.4391 64.788C76.7671 64.972 77.1391 65.064 77.5551 65.064C77.8991 65.064 78.2191 64.992 78.5151 64.848C78.8191 64.696 79.0751 64.464 79.2831 64.152L80.1591 64.704C79.9111 65.144 79.5591 65.484 79.1031 65.724C78.6551 65.956 78.1431 66.072 77.5671 66.072ZM84.2808 66.072C83.6408 66.072 83.0728 65.932 82.5768 65.652C82.0808 65.372 81.6888 64.988 81.4008 64.5C81.1128 64.004 80.9688 63.444 80.9688 62.82C80.9688 62.188 81.1128 61.628 81.4008 61.14C81.6888 60.652 82.0808 60.272 82.5768 60C83.0728 59.72 83.6408 59.58 84.2808 59.58C84.9128 59.58 85.4768 59.72 85.9728 60C86.4768 60.272 86.8688 60.652 87.1488 61.14C87.4368 61.62 87.5808 62.18 87.5808 62.82C87.5808 63.452 87.4368 64.012 87.1488 64.5C86.8688 64.988 86.4768 65.372 85.9728 65.652C85.4768 65.932 84.9128 66.072 84.2808 66.072ZM84.2808 65.064C84.6888 65.064 85.0528 64.972 85.3728 64.788C85.7008 64.604 85.9568 64.344 86.1408 64.008C86.3248 63.664 86.4168 63.268 86.4168 62.82C86.4168 62.364 86.3248 61.972 86.1408 61.644C85.9568 61.308 85.7008 61.048 85.3728 60.864C85.0528 60.68 84.6888 60.588 84.2808 60.588C83.8728 60.588 83.5088 60.68 83.1888 60.864C82.8688 61.048 82.6128 61.308 82.4208 61.644C82.2288 61.972 82.1328 62.364 82.1328 62.82C82.1328 63.268 82.2288 63.664 82.4208 64.008C82.6128 64.344 82.8688 64.604 83.1888 64.788C83.5088 64.972 83.8728 65.064 84.2808 65.064ZM91.802 66.072C91.186 66.072 90.634 65.936 90.146 65.664C89.666 65.392 89.286 65.012 89.006 64.524C88.726 64.036 88.586 63.468 88.586 62.82C88.586 62.172 88.726 61.608 89.006 61.128C89.286 60.64 89.666 60.26 90.146 59.988C90.634 59.716 91.186 59.58 91.802 59.58C92.338 59.58 92.822 59.7 93.254 59.94C93.686 60.18 94.03 60.54 94.286 61.02C94.55 61.5 94.682 62.1 94.682 62.82C94.682 63.54 94.554 64.14 94.298 64.62C94.05 65.1 93.71 65.464 93.278 65.712C92.846 65.952 92.354 66.072 91.802 66.072ZM91.898 65.064C92.298 65.064 92.658 64.972 92.978 64.788C93.306 64.604 93.562 64.344 93.746 64.008C93.938 63.664 94.034 63.268 94.034 62.82C94.034 62.364 93.938 61.972 93.746 61.644C93.562 61.308 93.306 61.048 92.978 60.864C92.658 60.68 92.298 60.588 91.898 60.588C91.49 60.588 91.126 60.68 90.806 60.864C90.486 61.048 90.23 61.308 90.038 61.644C89.846 61.972 89.75 62.364 89.75 62.82C89.75 63.268 89.846 63.664 90.038 64.008C90.23 64.344 90.486 64.604 90.806 64.788C91.126 64.972 91.49 65.064 91.898 65.064ZM94.07 66V64.284L94.142 62.808L94.022 61.332V57.096H95.174V66H94.07ZM100.186 66.072C99.5057 66.072 98.9057 65.932 98.3857 65.652C97.8737 65.372 97.4737 64.988 97.1857 64.5C96.9057 64.012 96.7657 63.452 96.7657 62.82C96.7657 62.188 96.9017 61.628 97.1737 61.14C97.4537 60.652 97.8337 60.272 98.3137 60C98.8017 59.72 99.3497 59.58 99.9577 59.58C100.574 59.58 101.118 59.716 101.59 59.988C102.062 60.26 102.43 60.644 102.694 61.14C102.966 61.628 103.102 62.2 103.102 62.856C103.102 62.904 103.098 62.96 103.09 63.024C103.09 63.088 103.086 63.148 103.078 63.204H97.6657V62.376H102.478L102.01 62.664C102.018 62.256 101.934 61.892 101.758 61.572C101.582 61.252 101.338 61.004 101.026 60.828C100.722 60.644 100.366 60.552 99.9577 60.552C99.5577 60.552 99.2017 60.644 98.8897 60.828C98.5777 61.004 98.3337 61.256 98.1577 61.584C97.9817 61.904 97.8937 62.272 97.8937 62.688V62.88C97.8937 63.304 97.9897 63.684 98.1817 64.02C98.3817 64.348 98.6577 64.604 99.0097 64.788C99.3617 64.972 99.7657 65.064 100.222 65.064C100.598 65.064 100.938 65 101.242 64.872C101.554 64.744 101.826 64.552 102.058 64.296L102.694 65.04C102.406 65.376 102.046 65.632 101.614 65.808C101.19 65.984 100.714 66.072 100.186 66.072ZM104.977 61.224C104.753 61.224 104.561 61.148 104.401 60.996C104.241 60.836 104.161 60.636 104.161 60.396C104.161 60.156 104.241 59.96 104.401 59.808C104.561 59.656 104.753 59.58 104.977 59.58C105.193 59.58 105.377 59.656 105.529 59.808C105.689 59.96 105.769 60.156 105.769 60.396C105.769 60.636 105.689 60.836 105.529 60.996C105.377 61.148 105.193 61.224 104.977 61.224ZM104.977 66.072C104.753 66.072 104.561 65.996 104.401 65.844C104.241 65.684 104.161 65.484 104.161 65.244C104.161 65.004 104.241 64.808 104.401 64.656C104.561 64.504 104.753 64.428 104.977 64.428C105.193 64.428 105.377 64.504 105.529 64.656C105.689 64.808 105.769 65.004 105.769 65.244C105.769 65.484 105.689 65.684 105.529 65.844C105.377 65.996 105.193 66.072 104.977 66.072Z" fill="#1D1D1D"/>
<path d="M116.43 68.192C115.534 68.192 114.675 68.0747 113.854 67.84C113.033 67.5947 112.371 67.28 111.87 66.896L112.75 64.944C113.23 65.2853 113.795 65.568 114.446 65.792C115.107 66.0053 115.774 66.112 116.446 66.112C116.958 66.112 117.369 66.064 117.678 65.968C117.998 65.8613 118.233 65.7173 118.382 65.536C118.531 65.3547 118.606 65.1467 118.606 64.912C118.606 64.6133 118.489 64.3787 118.254 64.208C118.019 64.0267 117.71 63.8827 117.326 63.776C116.942 63.6587 116.515 63.552 116.046 63.456C115.587 63.3493 115.123 63.2213 114.654 63.072C114.195 62.9227 113.774 62.7307 113.39 62.496C113.006 62.2613 112.691 61.952 112.446 61.568C112.211 61.184 112.094 60.6933 112.094 60.096C112.094 59.456 112.265 58.8747 112.606 58.352C112.958 57.8187 113.481 57.3973 114.174 57.088C114.878 56.768 115.758 56.608 116.814 56.608C117.518 56.608 118.211 56.6933 118.894 56.864C119.577 57.024 120.179 57.2693 120.702 57.6L119.902 59.568C119.379 59.2693 118.857 59.0507 118.334 58.912C117.811 58.7627 117.299 58.688 116.798 58.688C116.297 58.688 115.886 58.7467 115.566 58.864C115.246 58.9813 115.017 59.136 114.878 59.328C114.739 59.5093 114.67 59.7227 114.67 59.968C114.67 60.256 114.787 60.4907 115.022 60.672C115.257 60.8427 115.566 60.9813 115.95 61.088C116.334 61.1947 116.755 61.3013 117.214 61.408C117.683 61.5147 118.147 61.6373 118.606 61.776C119.075 61.9147 119.502 62.1013 119.886 62.336C120.27 62.5707 120.579 62.88 120.814 63.264C121.059 63.648 121.182 64.1333 121.182 64.72C121.182 65.3493 121.006 65.9253 120.654 66.448C120.302 66.9707 119.774 67.392 119.07 67.712C118.377 68.032 117.497 68.192 116.43 68.192ZM127.929 68.192C126.34 68.192 125.097 67.7493 124.201 66.864C123.305 65.9787 122.857 64.7147 122.857 63.072V56.8H125.449V62.976C125.449 64.0427 125.668 64.8107 126.105 65.28C126.542 65.7493 127.156 65.984 127.945 65.984C128.734 65.984 129.348 65.7493 129.785 65.28C130.222 64.8107 130.441 64.0427 130.441 62.976V56.8H133.001V63.072C133.001 64.7147 132.553 65.9787 131.657 66.864C130.761 67.7493 129.518 68.192 127.929 68.192ZM135.562 68V56.8H140.41C141.413 56.8 142.277 56.9653 143.002 57.296C143.728 57.616 144.288 58.08 144.682 58.688C145.077 59.296 145.274 60.0213 145.274 60.864C145.274 61.696 145.077 62.416 144.682 63.024C144.288 63.632 143.728 64.1013 143.002 64.432C142.277 64.752 141.413 64.912 140.41 64.912H137.002L138.154 63.744V68H135.562ZM138.154 64.032L137.002 62.8H140.266C141.066 62.8 141.664 62.6293 142.058 62.288C142.453 61.9467 142.65 61.472 142.65 60.864C142.65 60.2453 142.453 59.7653 142.058 59.424C141.664 59.0827 141.066 58.912 140.266 58.912H137.002L138.154 57.68V64.032ZM149.509 61.312H154.901V63.328H149.509V61.312ZM149.701 65.92H155.797V68H147.125V56.8H155.589V58.88H149.701V65.92ZM157.859 68V56.8H162.707C163.71 56.8 164.574 56.9653 165.299 57.296C166.025 57.616 166.585 58.08 166.979 58.688C167.374 59.296 167.571 60.0213 167.571 60.864C167.571 61.696 167.374 62.416 166.979 63.024C166.585 63.6213 166.025 64.08 165.299 64.4C164.574 64.72 163.71 64.88 162.707 64.88H159.299L160.451 63.744V68H157.859ZM164.979 68L162.179 63.936H164.947L167.779 68H164.979ZM160.451 64.032L159.299 62.816H162.563C163.363 62.816 163.961 62.6453 164.355 62.304C164.75 61.952 164.947 61.472 164.947 60.864C164.947 60.2453 164.75 59.7653 164.355 59.424C163.961 59.0827 163.363 58.912 162.563 58.912H159.299L160.451 57.68V64.032ZM169.625 68V56.8H175.097C176.505 56.8 177.561 57.0667 178.265 57.6C178.98 58.1333 179.337 58.8373 179.337 59.712C179.337 60.2987 179.193 60.8107 178.905 61.248C178.617 61.6747 178.222 62.0053 177.721 62.24C177.22 62.4747 176.644 62.592 175.993 62.592L176.297 61.936C177.001 61.936 177.625 62.0533 178.169 62.288C178.713 62.512 179.134 62.848 179.433 63.296C179.742 63.744 179.897 64.2933 179.897 64.944C179.897 65.904 179.518 66.656 178.761 67.2C178.004 67.7333 176.889 68 175.417 68H169.625ZM172.201 66.048H175.225C175.897 66.048 176.404 65.9413 176.745 65.728C177.097 65.504 177.273 65.152 177.273 64.672C177.273 64.2027 177.097 63.856 176.745 63.632C176.404 63.3973 175.897 63.28 175.225 63.28H172.009V61.392H174.777C175.406 61.392 175.886 61.2853 176.217 61.072C176.558 60.848 176.729 60.512 176.729 60.064C176.729 59.6267 176.558 59.3013 176.217 59.088C175.886 58.864 175.406 58.752 174.777 58.752H172.201V66.048ZM186.163 68.192C185.139 68.192 184.249 67.9787 183.491 67.552C182.745 67.1253 182.169 66.5013 181.763 65.68C181.358 64.8587 181.155 63.8453 181.155 62.64C181.155 61.3493 181.395 60.256 181.875 59.36C182.366 58.464 183.038 57.7813 183.891 57.312C184.755 56.8427 185.747 56.608 186.867 56.608C187.465 56.608 188.035 56.672 188.579 56.8C189.123 56.928 189.593 57.12 189.987 57.376L189.027 59.28C188.718 59.0667 188.387 58.9227 188.035 58.848C187.683 58.7627 187.315 58.72 186.931 58.72C185.961 58.72 185.193 59.0133 184.627 59.6C184.062 60.1867 183.779 61.056 183.779 62.208C183.779 62.4 183.779 62.6133 183.779 62.848C183.79 63.0827 183.822 63.3173 183.875 63.552L183.155 62.88C183.358 62.464 183.619 62.1173 183.939 61.84C184.259 61.552 184.638 61.3387 185.075 61.2C185.523 61.0507 186.014 60.976 186.547 60.976C187.273 60.976 187.923 61.12 188.499 61.408C189.075 61.696 189.534 62.1013 189.875 62.624C190.227 63.1467 190.403 63.76 190.403 64.464C190.403 65.2213 190.211 65.8827 189.827 66.448C189.454 67.0027 188.947 67.4347 188.307 67.744C187.678 68.0427 186.963 68.192 186.163 68.192ZM186.019 66.256C186.382 66.256 186.702 66.192 186.979 66.064C187.267 65.9253 187.491 65.728 187.651 65.472C187.811 65.216 187.891 64.9227 187.891 64.592C187.891 64.08 187.715 63.6747 187.363 63.376C187.022 63.0667 186.563 62.912 185.987 62.912C185.603 62.912 185.267 62.9867 184.979 63.136C184.691 63.2747 184.462 63.472 184.291 63.728C184.131 63.9733 184.051 64.2613 184.051 64.592C184.051 64.912 184.131 65.2 184.291 65.456C184.451 65.7013 184.675 65.8987 184.963 66.048C185.251 66.1867 185.603 66.256 186.019 66.256ZM196.143 68.192C195.225 68.192 194.404 67.968 193.679 67.52C192.953 67.0613 192.383 66.4 191.967 65.536C191.551 64.672 191.343 63.6267 191.343 62.4C191.343 61.1733 191.551 60.128 191.967 59.264C192.383 58.4 192.953 57.744 193.679 57.296C194.404 56.8373 195.225 56.608 196.143 56.608C197.071 56.608 197.892 56.8373 198.607 57.296C199.332 57.744 199.903 58.4 200.319 59.264C200.735 60.128 200.943 61.1733 200.943 62.4C200.943 63.6267 200.735 64.672 200.319 65.536C199.903 66.4 199.332 67.0613 198.607 67.52C197.892 67.968 197.071 68.192 196.143 68.192ZM196.143 66C196.58 66 196.959 65.8773 197.279 65.632C197.609 65.3867 197.865 64.9973 198.047 64.464C198.239 63.9307 198.335 63.2427 198.335 62.4C198.335 61.5573 198.239 60.8693 198.047 60.336C197.865 59.8027 197.609 59.4133 197.279 59.168C196.959 58.9227 196.58 58.8 196.143 58.8C195.716 58.8 195.337 58.9227 195.007 59.168C194.687 59.4133 194.431 59.8027 194.239 60.336C194.057 60.8693 193.967 61.5573 193.967 62.4C193.967 63.2427 194.057 63.9307 194.239 64.464C194.431 64.9973 194.687 65.3867 195.007 65.632C195.337 65.8773 195.716 66 196.143 66Z" fill="#1D1D1D"/>
<path d="M309.872 46.6617L291.39 48.0207L306.184 58.3928L320.978 48.0207L309.872 46.6617Z" fill="#D88313"/>
<g style="mix-blend-mode:multiply">
<path d="M309.974 47.5257L294.214 48.6845L306.829 57.5287L319.445 48.6845L309.974 47.5257Z" fill="#F7D079"/>
</g>
<path d="M305.57 74.6241L326.141 71.7517V48.6664L305.57 50.7865V74.6241Z" fill="#FCC840"/>
<path d="M291.39 70.6662L305.57 74.6241V50.7149L291.39 48.0207V70.6662Z" fill="#FCC840"/>
<g style="mix-blend-mode:multiply">
<path d="M291.39 70.6662L305.57 74.6241V50.7149L291.39 48.0207V70.6662Z" fill="#F7D079"/>
</g>
<path d="M314.411 73.3897L319.804 72.6366V49.3195L314.411 49.9546V73.3897Z" fill="#EE8037"/>
<path d="M299.532 72.9505L295.615 71.8851L295.722 48.8445L299.532 49.6186V72.9505Z" fill="#EE8037"/>
<g style="mix-blend-mode:multiply">
<path d="M299.532 72.9505L295.615 71.8851L295.722 48.8445L299.532 49.6186V72.9505Z" fill="#F4A97F"/>
</g>
<path d="M307.571 45.8374C307.571 45.8374 307.046 47.3298 307.214 48.6857L306.461 48.8155C305.387 47.534 306.251 45.9458 306.251 45.9458C306.53 46.4795 307.571 45.8374 307.571 45.8374Z" fill="#FFCBA2"/>
<path d="M305.837 36.4195C305.837 36.4195 305.26 40.0681 305.606 43.2178L304.599 43.7122C303.037 40.959 304.064 37.0041 304.064 37.0041C304.487 38.1928 305.837 36.4195 305.837 36.4195Z" fill="#FFCBA2"/>
<path d="M302.25 46.1873C302.25 46.1873 301.618 46.2045 301.136 46.461L300.98 46.1983C301.305 45.614 302.021 45.7098 302.021 45.7098C301.862 45.8901 302.25 46.1873 302.25 46.1873Z" fill="#FFCBA2"/>
<path d="M302.352 34.6683C302.352 34.6683 301.628 35.1346 301.247 35.7725L300.88 35.5767C300.847 34.6676 301.749 34.2742 301.749 34.2742C301.69 34.5966 302.352 34.6683 302.352 34.6683Z" fill="#FFCBA2"/>
<path d="M308.468 45.1532C308.468 45.1532 307.639 43.7524 308.859 42.175L309.903 42.5741C308.953 43.898 309.849 45.0479 309.849 45.0479C309.388 44.6206 308.468 45.1532 308.468 45.1532Z" fill="#FF9450"/>
<path d="M333.351 31.7581C333.351 31.7581 332.109 32.5575 331.457 33.6511L330.828 33.3154C330.772 31.7568 332.317 31.0823 332.317 31.0823C332.216 31.635 333.351 31.7581 333.351 31.7581Z" fill="#9EDEFF"/>
<path d="M288.798 39.0291C288.798 39.0291 293.308 40.8056 297.956 45.2809L296.511 45.7023C292.594 42.032 288.845 40.8196 288.845 40.8196C290.266 41.1238 288.798 39.0291 288.798 39.0291Z" fill="#FF9450"/>
<path d="M326.723 45.5233C326.642 49.3492 325.464 51.6801 325.464 51.6801C325.464 51.6801 323.165 48.5554 323.223 46.463C323.281 44.3702 325.078 42.2041 325.078 42.2041C325.078 42.2041 326.766 43.4346 326.723 45.5233Z" fill="#EE8037"/>
<path d="M325.408 50.4954C325.431 49.2064 323.899 45.9918 324.24 44.4717C324.58 42.9516 325.101 42.211 325.101 42.211C325.101 42.211 323.353 42.888 322.104 42.926C320.854 42.9641 319.449 43.9326 320.105 46.1472C320.761 48.3619 322.177 49.1643 322.275 50.3087C322.374 51.4531 325.408 50.4954 325.408 50.4954Z" fill="#EE8037"/>
<g style="mix-blend-mode:multiply">
<path d="M325.408 50.4954C325.431 49.2064 323.899 45.9918 324.24 44.4717C324.58 42.9516 325.101 42.211 325.101 42.211C325.101 42.211 323.353 42.888 322.104 42.926C320.854 42.9641 319.449 43.9326 320.105 46.1472C320.761 48.3619 322.177 49.1643 322.275 50.3087C322.374 51.4531 325.408 50.4954 325.408 50.4954Z" fill="#EE8037"/>
</g>
<path d="M335.435 57.4755C332.114 57.0814 329.919 57.7461 329.919 57.7461C329.919 57.7461 332.316 60.5553 334.135 60.7561C335.953 60.9568 338.064 59.312 338.064 59.312C338.064 59.312 337.248 57.6907 335.435 57.4755Z" fill="#EE8037"/>
<g style="mix-blend-mode:multiply">
<path d="M335.435 57.4755C332.114 57.0814 329.919 57.7461 329.919 57.7461C329.919 57.7461 332.316 60.5553 334.135 60.7561C335.953 60.9568 338.064 59.312 338.064 59.312C338.064 59.312 337.248 57.6907 335.435 57.4755Z" fill="#EE8037"/>
</g>
<path d="M330.273 57.7935C332.672 57.3848 334.661 59.1761 336.064 59.4705C337.299 59.7297 338.064 59.312 338.064 59.312C338.064 59.312 337.284 60.4582 337.181 61.4926C337.064 62.6675 335.362 63.0922 334.16 62.9771C331.97 62.7671 331.755 60.883 330.768 60.6965C329.782 60.5099 330.273 57.7935 330.273 57.7935Z" fill="#EE8037"/>
<path d="M333.072 47.4965C329.67 52.4251 326.621 54.7591 326.621 54.7591C326.621 54.7591 326.892 48.6833 328.768 45.9998C330.644 43.3163 334.446 42.0744 334.446 42.0744C334.446 42.0744 334.929 44.8057 333.072 47.4965Z" fill="#EE8037"/>
<path d="M332.991 49.9692C327.41 52.6527 324.937 55.4968 324.937 55.4968C324.937 55.4968 331.435 55.8362 334.476 54.3535C337.518 52.8707 339.24 49.4766 339.24 49.4766C339.24 49.4766 336.038 48.5041 332.991 49.9692H332.991Z" fill="#EE8037"/>
<g style="mix-blend-mode:multiply">
<path d="M332.991 49.9692C327.41 52.6527 324.937 55.4968 324.937 55.4968C324.937 55.4968 331.435 55.8362 334.476 54.3535C337.518 52.8707 339.24 49.4766 339.24 49.4766C339.24 49.4766 336.038 48.5041 332.991 49.9692H332.991Z" fill="#EE8037"/>
</g>
<path d="M326.731 54.7526C328.615 53.8529 334.617 53.31 336.581 51.9132C338.545 50.5163 339.211 49.4562 339.211 49.4562C339.211 49.4562 339.646 51.7869 340.616 53.1506C341.586 54.5144 341.31 56.6763 337.502 57.4773C333.695 58.2783 331.348 57.3072 329.578 57.9791C327.808 58.6511 326.731 54.7526 326.731 54.7526Z" fill="#EE8037"/>
<path d="M326.979 54.228C330.036 51.3599 330.728 46.8575 332.054 44.6477C333.222 42.7033 334.446 42.0744 334.446 42.0744C334.446 42.0744 332.574 41.9968 331.563 41.1061C330.415 40.094 328.13 41.9932 326.875 43.7503C324.588 46.9499 325.976 49.1233 325.026 50.6563C324.075 52.1891 326.979 54.228 326.979 54.228Z" fill="#EE8037"/>
<g style="mix-blend-mode:multiply">
<path d="M326.979 54.228C330.036 51.3599 330.728 46.8575 332.054 44.6477C333.222 42.7033 334.446 42.0744 334.446 42.0744C334.446 42.0744 332.574 41.9968 331.563 41.1061C330.415 40.094 328.13 41.9932 326.875 43.7503C324.588 46.9499 325.976 49.1233 325.026 50.6563C324.075 52.1891 326.979 54.228 326.979 54.228Z" fill="#EE8037"/>
</g>
<g style="mix-blend-mode:multiply">
<path d="M325.325 51.3673L336.266 68.8298L331.935 71.9098L318.947 55.9032L311.391 43.8761L316.124 40.5097L325.325 51.3673Z" fill="#E3A20A"/>
</g>
<path d="M319.855 55.1633L332.228 72.2111L337.173 68.6945L325.947 50.8306L319.855 55.1633Z" fill="#FCC840"/>
<path d="M311.626 43.1981L319.855 55.1632L325.947 50.8306L316.55 39.6963L311.626 43.1981Z" fill="#FCC840"/>
<g style="mix-blend-mode:multiply">
<path d="M311.626 43.1981L319.855 55.1632L325.947 50.8306L316.55 39.6963L311.626 43.1981Z" fill="#F7D079"/>
</g>
<path d="M325.149 62.3405L328.32 66.703L333.767 62.8289L330.699 58.3928L325.149 62.3405Z" fill="#EE8037"/>
<g style="mix-blend-mode:multiply">
<path d="M316.534 50.2097L314.318 46.9787L319.81 43.2041L322.076 46.2681L316.534 50.2097Z" fill="#F4A97F"/>
</g>
<path d="M329.142 51.6909C329.142 51.6909 328.887 49.9367 328.165 48.5947L328.68 48.1681C330.057 49.0834 330.097 51.066 330.097 51.066C329.652 50.6195 329.142 51.6909 329.142 51.6909Z" fill="#FBC900"/>
<path d="M323.718 29.5008C323.726 29.4716 323.726 29.4395 323.714 29.409C323.685 29.3365 323.603 29.3009 323.531 29.3295L320.826 30.3944C320.753 30.423 320.718 30.5048 320.746 30.5773C320.775 30.6497 320.857 30.6854 320.929 30.6568L323.634 29.5918C323.676 29.5753 323.706 29.5409 323.718 29.5008Z" fill="#9FB1CE"/>
<path d="M324.074 24.9191C324.089 24.87 324.076 24.8147 324.037 24.7769C323.98 24.7231 323.891 24.725 323.837 24.7813L319.501 29.3142C319.447 29.3702 319.449 29.4596 319.505 29.5135C319.561 29.5674 319.651 29.5654 319.704 29.5091L324.041 24.9763C324.057 24.9596 324.068 24.9399 324.074 24.9191Z" fill="#9FB1CE"/>
<path d="M314.352 28.8655C314.36 28.8375 314.36 28.8067 314.349 28.7771L313.354 26.046C313.328 25.9728 313.247 25.9351 313.173 25.9618C313.1 25.9886 313.062 26.0693 313.089 26.1425L314.084 28.8736C314.111 28.9468 314.192 28.9845 314.265 28.9578C314.309 28.9419 314.34 28.9068 314.352 28.8655Z" fill="#9FB1CE"/>
<path d="M316.354 28.3088C316.36 28.2881 316.362 28.2656 316.358 28.2428L315.206 22.0762C315.192 21.9997 315.118 21.9493 315.041 21.9635C314.965 21.9778 314.914 22.0513 314.929 22.1281L316.08 28.2947C316.095 28.3712 316.168 28.4216 316.245 28.4073C316.299 28.3973 316.34 28.3579 316.354 28.3088Z" fill="#9FB1CE"/>
<path d="M318.108 28.3756L319.502 23.6919C319.525 23.6173 319.482 23.5388 319.407 23.5165C319.333 23.4943 319.254 23.5368 319.232 23.6115L317.838 28.2951C317.816 28.3697 317.858 28.4483 317.933 28.4705C318.007 28.4927 318.086 28.4502 318.108 28.3756Z" fill="#9FB1CE"/>
<path d="M310.703 39.0385L310.965 39.8083L310.478 40.4599L311.291 40.4493L311.761 41.1131L312.002 40.3372L312.778 40.0955L312.115 39.6259L312.125 38.8134L311.473 39.2997L310.703 39.0385Z" fill="#FFC55E"/>
<path d="M314.731 33.0918L315.291 33.1651L315.548 33.6679L315.79 33.1579L316.348 33.0686L315.938 32.6802L316.026 32.1224L315.529 32.3923L315.026 32.1367L315.129 32.692L314.731 33.0918Z" fill="#FFC55E"/>
<path d="M297.126 30.1903L297.508 31.3173L296.796 32.2712L297.986 32.2559L298.674 33.2277L299.027 32.0912L300.163 31.7379L299.192 31.0508L299.207 29.8605L298.253 30.5725L297.126 30.1903Z" fill="#FFC55E"/>
<path d="M303.764 24.8132L305.739 26.32L305.617 28.8021L307.661 27.3892L309.984 28.2711L309.271 25.8918L310.828 23.9557L308.345 23.8976L306.985 21.8182L306.162 24.1628L303.764 24.8132Z" fill="#FFC55E"/>
<path d="M282.985 31.2754L283.527 32.3969L282.909 33.4787L284.143 33.3105L284.982 34.2316L285.203 33.0061L286.338 32.4939L285.241 31.9046L285.105 30.6667L284.205 31.5281L282.985 31.2754Z" fill="#FFC55E"/>
<path d="M319.286 34.1538L320.396 35.9367L319.556 37.862L321.595 37.3571L323.167 38.7509L323.317 36.6559L325.127 35.592L323.182 34.8023L322.73 32.7507L321.377 34.3577L319.286 34.1538Z" fill="#FFC55E"/>
<path d="M286.916 44.4914L287.708 44.8107L287.893 45.6447L288.442 44.9899L289.293 45.0703L288.84 44.3464L289.18 43.5624L288.351 43.77L287.71 43.2041L287.651 44.0572L286.916 44.4914Z" fill="#FFC55E"/>
<path d="M294.906 35.7906L295.378 35.9809L295.489 36.4783L295.817 36.0877L296.323 36.1357L296.053 35.7041L296.256 35.2369L295.762 35.3603L295.38 35.0233L295.345 35.5315L294.906 35.7906Z" fill="#FFC55E"/>
<path d="M326.936 29.6807L327.432 29.8804L327.548 30.402L327.891 29.9923L328.423 30.0429L328.14 29.59L328.352 29.0999L327.834 29.2293L327.433 28.8758L327.396 29.4091L326.936 29.6807Z" fill="#FFC55E"/>
<path d="M294.933 29.8605C295.475 29.8605 295.917 29.4187 295.917 28.8757C295.917 28.3327 295.475 27.8908 294.933 27.8908C294.389 27.8908 293.948 28.3327 293.948 28.8757C293.948 29.4187 294.389 29.8605 294.933 29.8605ZM294.933 28.3231C295.237 28.3231 295.485 28.571 295.485 28.8757C295.485 29.1804 295.237 29.4283 294.933 29.4283C294.628 29.4283 294.38 29.1804 294.38 28.8757C294.38 28.571 294.628 28.3231 294.933 28.3231Z" fill="#9FB1CE"/>
<path d="M328.461 37.5293C329.011 37.5293 329.459 37.082 329.459 36.532C329.459 35.9821 329.011 35.5348 328.461 35.5348C327.912 35.5348 327.464 35.9821 327.464 36.532C327.464 37.082 327.912 37.5293 328.461 37.5293ZM328.461 35.9669C328.773 35.9669 329.027 36.2204 329.027 36.532C329.027 36.844 328.773 37.0975 328.461 37.0975C328.15 37.0975 327.896 36.844 327.896 36.532C327.896 36.2204 328.15 35.9669 328.461 35.9669Z" fill="#9FB1CE"/>
<path d="M308.836 36.0426C309.685 36.0426 310.375 35.3518 310.375 34.5029C310.375 33.6537 309.685 32.9628 308.836 32.9628C307.987 32.9628 307.296 33.6537 307.296 34.5029C307.296 35.3518 307.987 36.0426 308.836 36.0426ZM308.836 33.3951C309.446 33.3951 309.943 33.892 309.943 34.5029C309.943 35.1135 309.446 35.6104 308.836 35.6104C308.225 35.6104 307.728 35.1135 307.728 34.5029C307.728 33.892 308.225 33.3951 308.836 33.3951Z" fill="#9FB1CE"/>
<path d="M316.348 39.029C316.74 39.029 317.058 38.7106 317.058 38.319C317.058 37.9273 316.74 37.6089 316.348 37.6089C315.957 37.6089 315.638 37.9273 315.638 38.319C315.638 38.7106 315.957 39.029 316.348 39.029ZM316.348 38.0407C316.502 38.0407 316.626 38.1654 316.626 38.319C316.626 38.4725 316.502 38.5972 316.348 38.5972C316.195 38.5972 316.07 38.4725 316.07 38.319C316.07 38.1654 316.195 38.0407 316.348 38.0407Z" fill="#9FB1CE"/>
<path d="M284.527 38.6948C285.029 38.6948 285.437 38.2861 285.437 37.784C285.437 37.2823 285.029 36.8736 284.527 36.8736C284.025 36.8736 283.616 37.2823 283.616 37.784C283.616 38.2861 284.025 38.6948 284.527 38.6948ZM284.527 37.3059C284.79 37.3059 285.005 37.5204 285.005 37.784C285.005 38.0481 284.79 38.2626 284.527 38.2626C284.263 38.2626 284.048 38.0481 284.048 37.784C284.048 37.5204 284.263 37.3059 284.527 37.3059Z" fill="#9FB1CE"/>
<path d="M297.956 40.8235C298.306 40.8235 298.591 40.5387 298.591 40.1889C298.591 39.8388 298.306 39.554 297.956 39.554C297.606 39.554 297.321 39.8388 297.321 40.1889C297.321 40.5387 297.606 40.8235 297.956 40.8235ZM297.956 39.9862C298.068 39.9862 298.159 40.0772 298.159 40.1889C298.159 40.3002 298.068 40.3912 297.956 40.3912C297.844 40.3912 297.754 40.3002 297.754 40.1889C297.754 40.0772 297.844 39.9862 297.956 39.9862Z" fill="#9FB1CE"/>
</g>
<defs>
<clipPath id="clip0_18412_13165">
<rect width="360" height="96" fill="white"/>
</clipPath>
</defs>
</svg>
